<svg height="480pt" viewBox="0 0 480 480" width="480pt" xmlns="http://www.w3.org/2000/svg"><path d="m288 199.820312v-24l-48 32v-32l-48 32v-32l-48 32v80h152v-88zm0 0" fill="#8aced8"/><path d="m336 287.820312h-48v-88l8-48h32l8 48zm0 0" fill="#cbcbcb"/><path d="m328 103.820312c0 8.839844-7.164062 16-16 16s-16-7.160156-16-16v-16c0-17.671874 14.328125-32 32-32h40v8c0 22.09375-17.910156 40-40 40zm0 0" fill="#ebebeb"/><g fill="#fbd699"><path d="m270.398438 35.023438-24-32c-1.574219-1.914063-3.921876-3.023438-6.398438-3.023438s-4.824219 1.109375-6.398438 3.023438l-24 32 12.796876 9.597656 9.601562-12.800782v40h16v-40l9.601562 12.800782zm0 0"/><path d="m232 87.820312h16v16h-16zm0 0"/><path d="m232 119.820312h16v16h-16zm0 0"/><path d="m90.910156 79.421875-28.285156-28.289063 15.847656 2.265626 2.261719-15.839844-39.597656-5.65625c-2.496094-.359375-5.011719.480468-6.792969 2.261718-1.785156 1.78125-2.621094 4.300782-2.265625 6.792969l5.65625 39.601563 15.839844-2.265625-2.261719-15.847657 28.289062 28.289063zm0 0"/><path d="m90.914062 102.046875 11.3125-11.316406 11.3125 11.316406-11.3125 11.3125zm0 0"/><path d="m113.542969 124.671875 11.3125-11.316406 11.316406 11.316406-11.316406 11.3125zm0 0"/><path d="m56 231.820312h-24l12.800781-9.597656-9.601562-12.800781-32 24c-2.011719 1.511719-3.199219 3.882813-3.199219 6.398437 0 2.519532 1.1875 4.890626 3.199219 6.402344l32 24 9.601562-12.800781-12.800781-9.601563h24zm0 0"/><path d="m72 231.820312h16v16h-16zm0 0"/><path d="m104 231.820312h16v16h-16zm0 0"/><path d="m62.625 428.511719 28.285156-28.289063-11.308594-11.3125-28.289062 28.289063 2.289062-15.847657-15.839843-2.265624-5.65625 39.601562c-.332031 2.289062.351562 4.613281 1.863281 6.367188 1.515625 1.75 3.714844 2.761718 6.03125 2.765624.378906.003907.761719-.023437 1.136719-.078124l39.597656-5.65625-2.261719-15.839844zm0 0"/><path d="m90.910156 377.601562 11.3125-11.3125 11.3125 11.3125-11.3125 11.316407zm0 0"/><path d="m113.546875 354.96875 11.3125-11.3125 11.316406 11.3125-11.316406 11.316406zm0 0"/><path d="m257.601562 435.023438-9.601562 12.796874v-40h-16v40l-9.601562-12.796874-12.796876 9.597656 24 32c1.507813 2.015625 3.878907 3.199218 6.398438 3.199218s4.890625-1.183593 6.398438-3.199218l24-32zm0 0"/><path d="m232 375.820312h16v16h-16zm0 0"/><path d="m232 343.820312h16v16h-16zm0 0"/><path d="m442.265625 399.085938-15.839844 2.265624 2.261719 15.847657-28.289062-28.289063-11.308594 11.3125 28.285156 28.289063-15.847656-2.289063-2.261719 15.839844 39.597656 5.65625c.375.0625.757813.097656 1.136719.101562 2.320312.003907 4.527344-1.003906 6.046875-2.757812s2.203125-4.078125 1.875-6.375zm0 0"/><path d="m366.464844 377.597656 11.316406-11.3125 11.3125 11.3125-11.3125 11.3125zm0 0"/><path d="m343.839844 354.972656 11.3125-11.3125 11.3125 11.3125-11.3125 11.316406zm0 0"/><path d="m476.800781 233.421875-32-24-9.601562 12.800781 12.800781 9.597656h-24v16h24l-12.800781 9.601563 9.601562 12.800781 32-24c2.011719-1.511718 3.199219-3.882812 3.199219-6.402344 0-2.515624-1.1875-4.886718-3.199219-6.398437zm0 0"/><path d="m360 231.820312h16v16h-16zm0 0"/><path d="m392 231.820312h16v16h-16zm0 0"/><path d="m442.910156 34.164062c-1.769531-1.789062-4.289062-2.628906-6.78125-2.261718l-39.609375 5.65625 2.273438 15.839844 15.839843-2.265626-28.289062 28.289063 11.3125 11.3125 28.289062-28.289063-2.265624 15.847657 15.839843 2.265625 5.65625-39.601563c.355469-2.492187-.480469-5.011719-2.265625-6.792969zm0 0"/></g><path d="m192 207.820312v80h16v-90.664062zm0 0" fill="#6fbbc6"/><path d="m240 207.820312v80h16v-90.664062zm0 0" fill="#6fbbc6"/><path d="m288 287.820312h16v-136h-8l-8 48zm0 0" fill="#c3c3c3"/></svg>