<svg height="480pt" viewBox="0 -24 480 480" width="480pt" xmlns="http://www.w3.org/2000/svg"><path d="m472 128h-24v-24c0-4.417969-3.582031-8-8-8h-88v-56c-.027344-22.082031-17.917969-39.9726562-40-40h-144c-22.082031.0273438-39.972656 17.917969-40 40v56h-88c-4.417969 0-8 3.582031-8 8v24h-24c-4.417969 0-8 3.582031-8 8v288c0 4.417969 3.582031 8 8 8h464c4.417969 0 8-3.582031 8-8v-288c0-4.417969-3.582031-8-8-8zm-120 120v-136h80v240h-160c-8.683594.03125-17.117188 2.914062-24 8.207031v-72.207031h64c22.082031-.027344 39.972656-17.917969 40-40zm-208-208c0-13.253906 10.746094-24 24-24h144c13.253906 0 24 10.746094 24 24v208c0 13.253906-10.746094 24-24 24h-144c-13.253906 0-24-10.746094-24-24zm-96 72h80v136c.027344 22.082031 17.917969 39.972656 40 40h64v72.207031c-6.882812-5.292969-15.316406-8.175781-24-8.207031h-160zm-32 32h16v272h-16zm32 224h160c10.132812.042969 19.148438 6.445312 22.527344 16h-150.527344v16h152v16h-184zm200 32h152v-16h-150.527344c3.378906-9.554688 12.394532-15.957031 22.527344-16h160v48h-184zm216 16h-16v-272h16zm0 0"/><path d="m176 120h128c8.835938 0 16-7.164062 16-16v-48c0-8.835938-7.164062-16-16-16h-128c-8.835938 0-16 7.164062-16 16v48c0 8.835938 7.164062 16 16 16zm0-64h128v48h-128zm0 0"/><path d="m240 144c-13.253906 0-24 10.746094-24 24s10.746094 24 24 24 24-10.746094 24-24-10.746094-24-24-24zm0 32c-4.417969 0-8-3.582031-8-8s3.582031-8 8-8 8 3.582031 8 8-3.582031 8-8 8zm0 0"/><path d="m184 192c13.253906 0 24-10.746094 24-24s-10.746094-24-24-24-24 10.746094-24 24 10.746094 24 24 24zm0-32c4.417969 0 8 3.582031 8 8s-3.582031 8-8 8-8-3.582031-8-8 3.582031-8 8-8zm0 0"/><path d="m296 144c-13.253906 0-24 10.746094-24 24s10.746094 24 24 24 24-10.746094 24-24-10.746094-24-24-24zm0 32c-4.417969 0-8-3.582031-8-8s3.582031-8 8-8 8 3.582031 8 8-3.582031 8-8 8zm0 0"/><path d="m240 200c-13.253906 0-24 10.746094-24 24s10.746094 24 24 24 24-10.746094 24-24-10.746094-24-24-24zm0 32c-4.417969 0-8-3.582031-8-8s3.582031-8 8-8 8 3.582031 8 8-3.582031 8-8 8zm0 0"/><path d="m184 248c13.253906 0 24-10.746094 24-24s-10.746094-24-24-24-24 10.746094-24 24 10.746094 24 24 24zm0-32c4.417969 0 8 3.582031 8 8s-3.582031 8-8 8-8-3.582031-8-8 3.582031-8 8-8zm0 0"/><path d="m296 200c-13.253906 0-24 10.746094-24 24s10.746094 24 24 24 24-10.746094 24-24-10.746094-24-24-24zm0 32c-4.417969 0-8-3.582031-8-8s3.582031-8 8-8 8 3.582031 8 8-3.582031 8-8 8zm0 0"/></svg>