<svg height="480pt" viewBox="0 -24 480 480" width="480pt" xmlns="http://www.w3.org/2000/svg"><path d="m440 104v256h-168c-17.671875 0-32 14.328125-32 32v-288zm0 0" fill="#78b9eb"/><path d="m440 104v256h-150.238281c61.277343-60.160156 115.757812-142.71875 147.4375-256zm0 0" fill="#5aaae7"/><path d="m136 104h-96v256h168c17.671875 0 32 14.328125 32 32v-288zm0 0" fill="#5aaae7"/><path d="m440 360v64h32v-288h-32zm0 0" fill="#3d9ae2"/><path d="m272 360c-17.671875 0-32 14.328125-32 32v32h200v-64zm0 0" fill="#787680"/><path d="m440 360v16h-168c-17.671875 0-32 14.328125-32 32v-16c0-17.671875 14.328125-32 32-32zm0 0" fill="#57565c"/><path d="m40 136h-32v288h32zm0 0" fill="#3d9ae2"/><path d="m208 360h-168v64h200v-32c0-17.671875-14.328125-32-32-32zm0 0" fill="#787680"/><path d="m240 392v16c0-17.671875-14.328125-32-32-32h-168v-16h168c17.671875 0 32 14.328125 32 32zm0 0" fill="#57565c"/><path d="m168 8h144c17.671875 0 32 14.328125 32 32v208c0 17.671875-14.328125 32-32 32h-144c-17.671875 0-32-14.328125-32-32v-208c0-17.671875 14.328125-32 32-32zm0 0" fill="#ffc477"/><path d="m176 48h128c4.417969 0 8 3.582031 8 8v48c0 4.417969-3.582031 8-8 8h-128c-4.417969 0-8-3.582031-8-8v-48c0-4.417969 3.582031-8 8-8zm0 0" fill="#ffde55"/><g fill="#ff6243"><path d="m256 168c0 8.835938-7.164062 16-16 16s-16-7.164062-16-16 7.164062-16 16-16 16 7.164062 16 16zm0 0"/><path d="m200 168c0 8.835938-7.164062 16-16 16s-16-7.164062-16-16 7.164062-16 16-16 16 7.164062 16 16zm0 0"/><path d="m312 168c0 8.835938-7.164062 16-16 16s-16-7.164062-16-16 7.164062-16 16-16 16 7.164062 16 16zm0 0"/><path d="m256 224c0 8.835938-7.164062 16-16 16s-16-7.164062-16-16 7.164062-16 16-16 16 7.164062 16 16zm0 0"/><path d="m200 224c0 8.835938-7.164062 16-16 16s-16-7.164062-16-16 7.164062-16 16-16 16 7.164062 16 16zm0 0"/><path d="m312 224c0 8.835938-7.164062 16-16 16s-16-7.164062-16-16 7.164062-16 16-16 16 7.164062 16 16zm0 0"/></g><path d="m312 56v48c0 4.417969-3.582031 8-8 8h-94.480469c25.816407-19.109375 49.835938-40.53125 71.761719-64h22.71875c4.417969 0 8 3.582031 8 8zm0 0" fill="#ffd422"/><path d="m440 136h16v288h-16zm0 0" fill="#1e81ce"/><path d="m24 136h16v288h-16zm0 0" fill="#1e81ce"/><path d="m472 128h-24v-24c0-4.417969-3.582031-8-8-8h-88v-56c-.027344-22.082031-17.917969-39.9726562-40-40h-144c-22.082031.0273438-39.972656 17.917969-40 40v56h-88c-4.417969 0-8 3.582031-8 8v24h-24c-4.417969 0-8 3.582031-8 8v288c0 4.417969 3.582031 8 8 8h464c4.417969 0 8-3.582031 8-8v-288c0-4.417969-3.582031-8-8-8zm-120 120v-136h80v240h-160c-8.683594.03125-17.117188 2.914062-24 8.207031v-72.207031h64c22.082031-.027344 39.972656-17.917969 40-40zm-208-208c0-13.253906 10.746094-24 24-24h144c13.253906 0 24 10.746094 24 24v208c0 13.253906-10.746094 24-24 24h-144c-13.253906 0-24-10.746094-24-24zm-96 72h80v136c.027344 22.082031 17.917969 39.972656 40 40h64v72.207031c-6.882812-5.292969-15.316406-8.175781-24-8.207031h-160zm-32 32h16v272h-16zm32 224h160c10.132812.042969 19.148438 6.445312 22.527344 16h-150.527344v16h152v16h-184zm200 32h152v-16h-150.527344c3.378906-9.554688 12.394532-15.957031 22.527344-16h160v48h-184zm216 16h-16v-272h16zm0 0"/><path d="m176 120h128c8.835938 0 16-7.164062 16-16v-48c0-8.835938-7.164062-16-16-16h-128c-8.835938 0-16 7.164062-16 16v48c0 8.835938 7.164062 16 16 16zm0-64h128v48h-128zm0 0"/><path d="m240 144c-13.253906 0-24 10.746094-24 24s10.746094 24 24 24 24-10.746094 24-24-10.746094-24-24-24zm0 32c-4.417969 0-8-3.582031-8-8s3.582031-8 8-8 8 3.582031 8 8-3.582031 8-8 8zm0 0"/><path d="m184 192c13.253906 0 24-10.746094 24-24s-10.746094-24-24-24-24 10.746094-24 24 10.746094 24 24 24zm0-32c4.417969 0 8 3.582031 8 8s-3.582031 8-8 8-8-3.582031-8-8 3.582031-8 8-8zm0 0"/><path d="m296 144c-13.253906 0-24 10.746094-24 24s10.746094 24 24 24 24-10.746094 24-24-10.746094-24-24-24zm0 32c-4.417969 0-8-3.582031-8-8s3.582031-8 8-8 8 3.582031 8 8-3.582031 8-8 8zm0 0"/><path d="m240 200c-13.253906 0-24 10.746094-24 24s10.746094 24 24 24 24-10.746094 24-24-10.746094-24-24-24zm0 32c-4.417969 0-8-3.582031-8-8s3.582031-8 8-8 8 3.582031 8 8-3.582031 8-8 8zm0 0"/><path d="m184 248c13.253906 0 24-10.746094 24-24s-10.746094-24-24-24-24 10.746094-24 24 10.746094 24 24 24zm0-32c4.417969 0 8 3.582031 8 8s-3.582031 8-8 8-8-3.582031-8-8 3.582031-8 8-8zm0 0"/><path d="m296 200c-13.253906 0-24 10.746094-24 24s10.746094 24 24 24 24-10.746094 24-24-10.746094-24-24-24zm0 32c-4.417969 0-8-3.582031-8-8s3.582031-8 8-8 8 3.582031 8 8-3.582031 8-8 8zm0 0"/></svg>