<svg height="480pt" viewBox="0 0 480 480.00007" width="480pt" xmlns="http://www.w3.org/2000/svg"><path d="m323.152344 183.351562-6.304688-14.703124 2.472656-1.054688c31.695313-13.523438 55.582032-40.644531 64.992188-73.792969l15.375 4.398438c-10.722656 37.785156-37.953125 68.699219-74.085938 84.097656zm0 0" fill="#fbd699"/><path d="m384.3125 386.199219c-9.410156-33.148438-33.296875-60.269531-64.992188-73.792969l-2.472656-1.054688 6.304688-14.703124 2.472656 1.054687c36.125 15.40625 63.347656 46.316406 74.0625 84.097656zm0 0" fill="#fbd699"/><path d="m156.847656 183.351562-2.472656-1.054687c-36.125-15.40625-63.347656-46.316406-74.0625-84.097656l15.375-4.398438c9.410156 33.148438 33.296875 60.269531 64.992188 73.792969l2.472656 1.054688zm0 0" fill="#fbd699"/><path d="m95.6875 386.199219-15.375-4.398438c10.722656-37.785156 37.953125-68.699219 74.085938-84.097656l2.472656-1.054687 6.304687 14.703124-2.472656 1.054688c-31.703125 13.519531-55.601563 40.640625-65.015625 73.792969zm0 0" fill="#fbd699"/><path d="m128 232h16v16h-16zm0 0" fill="#b8eaee"/><path d="m96 232h16v16h-16zm0 0" fill="#b8eaee"/><path d="m368 232h16v16h-16zm0 0" fill="#b8eaee"/><path d="m336 232h16v16h-16zm0 0" fill="#b8eaee"/><path d="m232 128h16v16h-16zm0 0" fill="#b8eaee"/><path d="m232 96h16v16h-16zm0 0" fill="#b8eaee"/><path d="m232 368h16v16h-16zm0 0" fill="#b8eaee"/><path d="m232 336h16v16h-16zm0 0" fill="#b8eaee"/><path d="m480 56c0 30.929688-25.070312 56-56 56s-56-25.070312-56-56 25.070312-56 56-56 56 25.070312 56 56zm0 0" fill="#fbedbf"/><path d="m480 424c0 30.929688-25.070312 56-56 56s-56-25.070312-56-56 25.070312-56 56-56 56 25.070312 56 56zm0 0" fill="#fbedbf"/><path d="m112 56c0 30.929688-25.070312 56-56 56s-56-25.070312-56-56 25.070312-56 56-56 56 25.070312 56 56zm0 0" fill="#fbedbf"/><path d="m272 40c0 17.671875-14.328125 32-32 32s-32-14.328125-32-32 14.328125-32 32-32 32 14.328125 32 32zm0 0" fill="#aedee2"/><path d="m112 424c0 30.929688-25.070312 56-56 56s-56-25.070312-56-56 25.070312-56 56-56 56 25.070312 56 56zm0 0" fill="#fbedbf"/><path d="m272 440c0 17.671875-14.328125 32-32 32s-32-14.328125-32-32 14.328125-32 32-32 32 14.328125 32 32zm0 0" fill="#aedee2"/><path d="m72 240c0 17.671875-14.328125 32-32 32s-32-14.328125-32-32 14.328125-32 32-32 32 14.328125 32 32zm0 0" fill="#aedee2"/><path d="m472 240c0 17.671875-14.328125 32-32 32s-32-14.328125-32-32 14.328125-32 32-32 32 14.328125 32 32zm0 0" fill="#aedee2"/><path d="m312 240c0 39.765625-32.234375 72-72 72s-72-32.234375-72-72 32.234375-72 72-72 72 32.234375 72 72zm0 0" fill="#6fbbc6"/><g fill="#f7ba61"><path d="m280 296c0-17.671875-14.328125-32-32-32h-16c-17.671875 0-32 14.328125-32 32v3.855469c24.210938 16.191406 55.789062 16.191406 80 0zm0 0"/><path d="m280 232c0 22.089844-17.910156 40-40 40s-40-17.910156-40-40 17.910156-40 40-40 40 17.910156 40 40zm0 0"/><path d="m424 80c-13.253906 0-24-10.746094-24-24s10.746094-24 24-24 24 10.746094 24 24-10.746094 24-24 24zm0 0"/><path d="m448 96c0-13.253906-10.746094-24-24-24s-24 10.746094-24 24v10.535156c15.171875 7.285156 32.828125 7.285156 48 0zm0 0"/><path d="m424 448c-13.253906 0-24-10.746094-24-24s10.746094-24 24-24 24 10.746094 24 24-10.746094 24-24 24zm0 0"/><path d="m448 464c0-13.253906-10.746094-24-24-24s-24 10.746094-24 24v10.535156c15.171875 7.285156 32.828125 7.285156 48 0zm0 0"/><path d="m56 80c-13.253906 0-24-10.746094-24-24s10.746094-24 24-24 24 10.746094 24 24-10.746094 24-24 24zm0 0"/><path d="m80 96c0-13.253906-10.746094-24-24-24s-24 10.746094-24 24v10.535156c15.171875 7.285156 32.828125 7.285156 48 0zm0 0"/><path d="m56 448c-13.253906 0-24-10.746094-24-24s10.746094-24 24-24 24 10.746094 24 24-10.746094 24-24 24zm0 0"/><path d="m80 464c0-13.253906-10.746094-24-24-24s-24 10.746094-24 24v10.535156c15.171875 7.285156 32.828125 7.285156 48 0zm0 0"/></g></svg>