<svg height="399pt" viewBox="-30 1 399 399.99969" width="399pt" xmlns="http://www.w3.org/2000/svg"><path d="m330.398438 400h-318.917969c-5.523438 0-10-4.476562-10-10s4.476562-10 10-10h318.917969c5.523437 0 10 4.476562 10 10s-4.476563 10-10 10zm0 0" fill="#1ae5be"/><path d="m51.34375 237.574219c1.003906-3.398438 2.84375-6.492188 5.351562-9l177.839844-177.839844c16.59375-16.59375 43.5-16.59375 60.09375 0l6.871094 6.871094c-.835938-9.988281-5.191406-19.351563-12.285156-26.429688l-8.726563-8.726562c-16.59375-16.59375-43.5-16.59375-60.09375 0l-177.847656 177.835937c-2.503906 2.507813-4.34375 5.601563-5.351563 9l-26.699218 90.402344 24.492187-6.753906zm0 0" fill="#d4e1f4"/><path d="m287.558594 15.375c-20.5-20.5-53.734375-20.5-74.234375 0l-177.84375 177.839844c-.746094.753906-1.453125 1.542968-2.117188 2.367187-.324219.253907-.636719.523438-.929687.8125-1.253906 1.253907-2.148438 2.820313-2.59375 4.539063-.917969 1.765625-1.664063 3.617187-2.230469 5.523437l-26.699219 90.402344c-1.03125 3.480469-.089844 7.246094 2.453125 9.839844 2.546875 2.589843 6.292969 3.597656 9.796875 2.632812l91.644532-25.269531c1.824218-.503906 3.597656-1.175781 5.300781-2 2.574219-.472656 4.855469-1.945312 6.34375-4.101562.738281-.613282 1.460937-1.25 2.140625-1.929688l177.699218-177.695312c20.46875-20.511719 20.46875-53.722657 0-74.234376zm-90.558594 44.605469 54.679688 54.679687-21.976563 21.976563-54.679687-54.679688zm-153.121094 162 45.570313 45.566406-64.261719 17.722656zm64.382813 36.097656-54.679688-54.679687 107.300781-107.296876 54.679688 54.679688zm173.886719-173.878906-16.320313 16.320312-54.679687-54.679687 16.320312-16.320313c12.6875-12.691406 33.261719-12.691406 45.953125 0l8.726563 8.726563c12.671874 12.695312 12.671874 33.253906 0 45.953125zm0 0" fill="#0635c9"/></svg>